<svg width="24" height="24" viewBox="0 0 24 24" fill="none" xmlns="http://www.w3.org/2000/svg">
<path d="M24 12C24 10.5321 23.736 9.12602 23.2536 7.82609L12 7.30432L0.746391 7.82604C0.264047 9.12602 0 10.5321 0 12C0 13.4678 0.264047 14.8739 0.746391 16.1739L12 16.6956L23.2536 16.1739C23.736 14.8739 24 13.4678 24 12Z" fill="#D80027"/>
<path d="M12.0001 24.0001C17.1597 24.0001 21.5582 20.7436 23.2538 16.174H0.746536C2.44205 20.7436 6.84057 24.0001 12.0001 24.0001Z" fill="#6DA544"/>
<path d="M0.746536 7.82611H23.2538C21.5582 3.2565 17.1597 0 12.0001 0C6.84057 0 2.44205 3.2565 0.746536 7.82611Z" fill="#338AF3"/>
<path d="M12.2611 15.3913C10.3881 15.3913 8.86974 13.8729 8.86974 12C8.86974 10.127 10.3881 8.60867 12.2611 8.60867C12.845 8.60867 13.3945 8.75633 13.8743 9.0163C13.1216 8.28032 12.0925 7.82605 10.9567 7.82605C8.65149 7.82605 6.78281 9.69477 6.78281 11.9999C6.78281 14.3051 8.65154 16.1738 10.9567 16.1738C12.0925 16.1738 13.1217 15.7196 13.8743 14.9836C13.3945 15.2436 12.845 15.3913 12.2611 15.3913Z" fill="#F0F0F0"/>
<path d="M14.8697 9.6521L15.3189 10.9154L16.5298 10.3397L15.9542 11.5507L17.2175 11.9999L15.9542 12.4492L16.5298 13.6601L15.3189 13.0844L14.8697 14.3478L14.4205 13.0844L13.2095 13.6601L13.7852 12.4492L12.5218 11.9999L13.7852 11.5507L13.2095 10.3397L14.4205 10.9154L14.8697 9.6521Z" fill="#F0F0F0"/>
</svg>
