<svg width="32" height="32" viewBox="0 0 32 32" fill="none" xmlns="http://www.w3.org/2000/svg">
<path d="M15.0206 16.8495L7.59534 17.9703C7.25401 18.0218 7.01906 18.3402 7.07056 18.6816C7.11731 18.9913 7.38383 19.2134 7.68778 19.2134C7.71885 19.2134 7.75029 19.2111 7.78185 19.2063L15.2071 18.0856C15.5485 18.0341 15.7834 17.7156 15.7319 17.3743C15.6804 17.0329 15.3624 16.7982 15.0206 16.8495V16.8495Z" fill="white"/>
<path d="M8.19471 21.9424C7.85337 21.9939 7.61842 22.3123 7.66992 22.6537C7.71668 22.9634 7.98319 23.1855 8.28721 23.1855C8.31821 23.1855 8.34965 23.1832 8.38128 23.1784L15.8066 22.0577C16.1479 22.0062 16.3828 21.6877 16.3313 21.3464C16.2798 21.005 15.9613 20.7706 15.6199 20.8216L8.19471 21.9424Z" fill="white"/>
<path d="M29.6371 5.5194L18.1942 3.57141L17.9343 1.84887C17.7575 0.677606 16.6328 -0.153133 15.4601 0.0237533L2.20942 2.02375C1.03822 2.20045 0.207172 3.32527 0.384121 4.49784L1.74158 13.4915C1.79308 13.8329 2.1116 14.0677 2.45294 14.0162C2.79427 13.9647 3.02922 13.6463 2.97772 13.3049L1.6202 4.31133C1.54501 3.81299 1.89815 3.33502 2.39593 3.25983L15.6466 1.25983C16.1449 1.18501 16.6229 1.5376 16.6982 2.0355L20.0185 24.0357C20.1127 24.6578 19.6725 25.2541 19.0515 25.3496L6.02679 27.3155C5.523 27.3914 5.05129 27.0435 4.97528 26.5398L3.80108 18.7601C3.74958 18.4188 3.43119 18.1838 3.08979 18.2353C2.74846 18.2868 2.5135 18.6053 2.56501 18.9466L3.73921 26.7263C3.91603 27.8975 5.04066 28.7286 6.21342 28.5515L10.4263 27.9157C10.6204 28.859 11.3727 29.6234 12.3785 29.795L25.134 31.9667C26.138 32.1377 27.1703 31.6373 27.6543 30.7405C27.7788 30.5096 27.8645 30.2583 27.9085 29.9997L31.6049 8.29389V8.29383C31.8274 6.98662 30.9447 5.74204 29.6371 5.5194V5.5194ZM19.7918 14.1565L22.0725 11.4058L23.9295 16.4167L20.0328 15.7531L19.7918 14.1565ZM30.3725 8.084L26.6761 29.7898C26.5706 30.4099 25.9646 30.8402 25.3439 30.7343L12.5884 28.5626C12.1297 28.4844 11.7806 28.1496 11.6668 27.7284L19.2354 26.5861C19.8171 26.4979 20.3369 26.3137 20.7441 25.8668L23.3431 26.3096C23.3786 26.3156 23.414 26.3186 23.4488 26.3186C23.7479 26.3186 24.0123 26.1032 24.0643 25.7984C24.1222 25.4581 23.8934 25.1352 23.5531 25.0772L21.2936 24.6923C21.3206 24.4927 21.3207 24.2862 21.2891 24.0774L20.9968 22.1406L23.9674 22.6463C24.0028 22.6524 24.0382 22.6553 24.073 22.6553C24.3721 22.6553 24.6366 22.4399 24.6885 22.1351C24.7464 21.7948 24.5175 21.4719 24.1771 21.414L20.8003 20.8392L20.229 17.0547L23.9543 17.6891C24.7816 17.8247 25.4783 16.9991 25.1843 16.2058L23.1617 10.748C23.0219 10.3709 22.7018 10.1054 22.3052 10.0379C21.9085 9.97043 21.5188 10.1149 21.2622 10.4246L19.5416 12.4997L18.3907 4.87293L29.4274 6.75179C30.0554 6.85874 30.4794 7.45634 30.3725 8.084V8.084Z" fill="white"/>
<path d="M13.9164 8.20495L10.7126 5.84149C9.99875 5.31495 8.98931 5.46721 8.46259 6.1812L6.09926 9.38496C5.57823 10.0911 5.73336 11.1146 6.43884 11.6349L9.6426 13.9984C10.348 14.5185 11.3728 14.3633 11.8926 13.6587L14.2561 10.4549C14.7827 9.74098 14.6304 8.7316 13.9164 8.20495V8.20495ZM13.2501 9.71285L10.8867 12.9167C10.7692 13.0759 10.544 13.1099 10.3847 12.9924L7.18095 10.629C7.02375 10.513 6.98906 10.2845 7.1052 10.1271L9.46866 6.9233C9.58454 6.76623 9.81336 6.73154 9.97056 6.84749L13.1743 9.21089C13.3336 9.32833 13.3676 9.55359 13.2501 9.71285V9.71285Z" fill="white"/>
<path d="M3.22975 16.6764C3.4267 16.4795 3.46683 16.1683 3.33107 15.9266C3.20362 15.6997 2.93973 15.5749 2.68359 15.6188C2.4307 15.6622 2.22462 15.8592 2.17468 16.1121C2.12337 16.3717 2.24569 16.6436 2.47533 16.7756C2.71759 16.9148 3.0318 16.8744 3.22975 16.6764V16.6764Z" fill="white"/>
</svg>
