<svg width="25" height="24" viewBox="0 0 25 24" fill="none" xmlns="http://www.w3.org/2000/svg">
<g clip-path="url(#clip0)">
<path d="M24.9772 5.17027C24.9772 5.14284 24.9961 5.11615 24.9949 5.08904L17.6709 12.1461L24.9861 18.9777C24.9904 18.9289 24.9772 18.8797 24.9772 18.8298V5.17027V5.17027Z" fill="#04353A"/>
<path d="M16.5535 13.2321L13.5636 16.1087C13.4123 16.2542 13.2169 16.3272 13.0214 16.3272C12.8299 16.3272 12.6385 16.2574 12.4883 16.1173L9.50653 13.3388L2.14355 20.4359C2.32259 20.5003 2.51476 20.5502 2.716 20.5502H23.3269C23.6257 20.5502 23.906 20.4592 24.1497 20.3234L16.5535 13.2321Z" fill="#04353A"/>
<path d="M13.0129 14.4683L24.1903 3.7012C23.9372 3.55074 23.6427 3.44981 23.3269 3.44981H2.71605C2.30491 3.44981 1.92818 3.60944 1.63477 3.85292L13.0129 14.4683Z" fill="#04353A"/>
<path d="M0.995117 5.43251V18.8296C0.995117 18.9834 1.03046 19.1317 1.06884 19.2734L8.34047 12.271L0.995117 5.43251Z" fill="#04353A"/>
</g>
<defs>
<clipPath id="clip0">
<rect width="24" height="24" fill="white" transform="translate(0.995117)"/>
</clipPath>
</defs>
</svg>
