<svg width="33" height="32" viewBox="0 0 33 32" fill="none" xmlns="http://www.w3.org/2000/svg">
<g clip-path="url(#clip0)">
<path d="M17.6016 8C17.6016 8.73633 16.9954 9.33325 16.2477 9.33325C15.5 9.33325 14.8938 8.73633 14.8938 8C14.8938 7.26367 15.5 6.66675 16.2477 6.66675C16.9954 6.66675 17.6016 7.26367 17.6016 8Z" fill="white"/>
<path d="M16.2477 25.3333C15.6871 25.3333 15.2322 24.8853 15.2322 24.3333V14H13.8783C13.3177 14 12.8628 13.552 12.8628 13C12.8628 12.448 13.3177 12 13.8783 12H16.2477C16.8082 12 17.2631 12.448 17.2631 13V24.3333C17.2631 24.8853 16.8082 25.3333 16.2477 25.3333Z" fill="white"/>
<path d="M16.2477 32C7.28838 32 0 24.8228 0 16C0 7.17725 7.28838 0 16.2477 0C25.2071 0 32.4955 7.17725 32.4955 16C32.4955 24.8228 25.2071 32 16.2477 32ZM16.2477 2C8.40824 2 2.03097 8.28003 2.03097 16C2.03097 23.72 8.40824 30 16.2477 30C24.0872 30 30.4645 23.72 30.4645 16C30.4645 8.28003 24.0872 2 16.2477 2Z" fill="white"/>
<path d="M19.2942 25.3333H13.2013C12.6407 25.3333 12.1858 24.8853 12.1858 24.3333C12.1858 23.7812 12.6407 23.3333 13.2013 23.3333H19.2942C19.8547 23.3333 20.3097 23.7812 20.3097 24.3333C20.3097 24.8853 19.8547 25.3333 19.2942 25.3333Z" fill="white"/>
</g>
<defs>
<clipPath id="clip0">
<rect width="32.4955" height="32" fill="white"/>
</clipPath>
</defs>
</svg>
