<svg width="25" height="24" viewBox="0 0 25 24" fill="none" xmlns="http://www.w3.org/2000/svg">
<g clip-path="url(#clip0)">
<path d="M19.3389 9H18.5889V6C18.5889 2.691 15.8979 0 12.5889 0C9.27987 0 6.58887 2.691 6.58887 6V9H5.83887C4.59887 9 3.58887 10.009 3.58887 11.25V21.75C3.58887 22.991 4.59887 24 5.83887 24H19.3389C20.5789 24 21.5889 22.991 21.5889 21.75V11.25C21.5889 10.009 20.5789 9 19.3389 9ZM8.58887 6C8.58887 3.794 10.3829 2 12.5889 2C14.7949 2 16.5889 3.794 16.5889 6V9H8.58887V6ZM13.5889 16.722V19C13.5889 19.552 13.1419 20 12.5889 20C12.0359 20 11.5889 19.552 11.5889 19V16.722C10.9939 16.375 10.5889 15.737 10.5889 15C10.5889 13.897 11.4859 13 12.5889 13C13.6919 13 14.5889 13.897 14.5889 15C14.5889 15.737 14.1839 16.375 13.5889 16.722Z" fill="#04353A"/>
</g>
<defs>
<clipPath id="clip0">
<rect width="24" height="24" fill="white" transform="translate(0.588867)"/>
</clipPath>
</defs>
</svg>
