<svg width="24" height="24" viewBox="0 0 24 24" fill="none" xmlns="http://www.w3.org/2000/svg">
<path d="M11.1805 4.07809L8.99916 1.79434C8.73975 1.52266 8.39002 1.3683 8.01445 1.35972C7.6381 1.35081 7.2825 1.48928 7.01091 1.74873L0.434955 8.02984C0.163314 8.2893 0.00895491 8.63898 0.000376787 9.01455C-0.00820134 9.39011 0.129939 9.7465 0.389392 10.018L4.64058 14.4689V6.89059C4.64058 5.33978 5.90227 4.07809 7.45308 4.07809H11.1805Z" fill="#F3AA4E"/>
<path d="M22.9387 4.24016L14.124 2.00492C13.7599 1.91244 13.3816 1.96751 13.0588 2.1597C12.736 2.35189 12.5075 2.65826 12.4152 3.0223L12.1475 4.07806H16.5463C18.0971 4.07806 19.3588 5.33975 19.3588 6.89056V20.883C19.5077 20.8513 19.652 20.7954 19.7866 20.7152C20.1094 20.523 20.338 20.2167 20.4303 19.8526L23.9561 5.94894C24.1467 5.1973 23.6903 4.43075 22.9387 4.24016Z" fill="#F3AA4E"/>
<path d="M16.5469 5.48438H7.45312C6.67772 5.48438 6.04688 6.11522 6.04688 6.89062V21.2344C6.04688 22.0098 6.67772 22.6406 7.45312 22.6406H16.5469C17.3223 22.6406 17.9531 22.0098 17.9531 21.2344V6.89062C17.9531 6.11522 17.3223 5.48438 16.5469 5.48438ZM9.375 8.10942C9.76331 8.10942 10.0781 8.42423 10.0781 8.81255C10.0781 9.20086 9.76331 9.51567 9.375 9.51567C8.98669 9.51567 8.67188 9.20086 8.67188 8.81255C8.67188 8.42423 8.98669 8.10942 9.375 8.10942ZM12 17.3906C11.8323 17.3906 11.6647 17.331 11.5312 17.2116L9.43453 15.336C9.4298 15.3318 9.4252 15.3275 9.42056 15.3232C8.89448 14.8264 8.64145 14.0752 8.74359 13.3136C8.84072 12.5892 9.25327 11.9676 9.84722 11.6506C10.1357 11.497 10.4405 11.4192 10.7535 11.4192C11.2285 11.4192 11.6626 11.6002 12 11.9033C12.3374 11.6002 12.7715 11.4192 13.2465 11.4192C13.5595 11.4192 13.8643 11.4969 14.1522 11.6503C14.7467 11.9676 15.1592 12.5892 15.2564 13.3135C15.3585 14.0751 15.1055 14.8264 14.5794 15.3232C14.5748 15.3275 14.5702 15.3318 14.5655 15.336L12.4688 17.2115C12.3353 17.331 12.1677 17.3906 12 17.3906ZM14.625 20.0155C14.2367 20.0155 13.9219 19.7008 13.9219 19.3124C13.9219 18.9241 14.2367 18.6093 14.625 18.6093C15.0133 18.6093 15.3281 18.9241 15.3281 19.3124C15.3281 19.7007 15.0133 20.0155 14.625 20.0155Z" fill="#F3AA4E"/>
</svg>
