<svg width="24" height="24" viewBox="0 0 24 24" fill="none" xmlns="http://www.w3.org/2000/svg">
<g clip-path="url(#clip0)">
<path d="M23.4147 21.658H21.3476V8.46361C21.3476 8.14087 21.085 7.87828 20.7623 7.87828H19.4267C19.2328 7.87828 19.0755 8.0355 19.0755 8.22947C19.0755 8.42344 19.2328 8.58066 19.4267 8.58066H20.6452V21.658H17.3092V8.58066H17.7753C17.9693 8.58066 18.1265 8.42344 18.1265 8.22947C18.1265 8.0355 17.9693 7.87828 17.7753 7.87828H17.1922C16.8695 7.87828 16.6069 8.14087 16.6069 8.46361V21.658H14.3704V12.9099C14.3704 12.5872 14.1078 12.3246 13.7851 12.3246H10.215C9.89227 12.3246 9.62967 12.5872 9.62967 12.9099V21.658H7.39317V16.751C7.39317 16.4282 7.13058 16.1656 6.80784 16.1656H3.2378C2.91506 16.1656 2.65247 16.4282 2.65247 16.751V18.3215C2.65247 18.5155 2.80969 18.6727 3.00366 18.6727C3.19763 18.6727 3.35484 18.5155 3.35484 18.3215V16.8681H6.69075V21.658H3.35484V19.9547C3.35484 19.7607 3.19763 19.6035 3.00366 19.6035C2.80969 19.6035 2.65247 19.7607 2.65247 19.9547V21.658H0.585328C0.262594 21.658 0 21.9206 0 22.2434V23.3632C0 23.686 0.262594 23.9486 0.585328 23.9486H23.4147C23.7374 23.9486 24 23.686 24 23.3632V22.2434C24 21.9206 23.7374 21.658 23.4147 21.658ZM10.332 13.027H13.668V21.658H10.332V13.027ZM23.2976 23.2462H0.702422V22.3605H3.0037H7.04203H9.98091H14.0192H16.9581H20.9964H23.2976V23.2462H23.2976Z" fill="#04353A"/>
<path d="M2.91828 12.9118L2.71738 14.0832C2.66136 14.4098 2.79313 14.7337 3.06121 14.9284C3.21271 15.0385 3.38994 15.0945 3.56835 15.0945C3.70569 15.0945 3.84374 15.0613 3.97133 14.9942L5.02325 14.4412L6.07518 14.9942C6.36843 15.1484 6.71713 15.1232 6.9853 14.9285C7.25338 14.7337 7.38514 14.4098 7.32913 14.0832L7.12822 12.9118L7.97924 12.0823C8.21652 11.851 8.30033 11.5115 8.19796 11.1964C8.09553 10.8812 7.82825 10.6558 7.50032 10.6081L6.32422 10.4372L5.79828 9.37154C5.65161 9.07435 5.35466 8.8898 5.02325 8.8898C4.69189 8.8898 4.39494 9.07439 4.24832 9.37154L3.72238 10.4372L2.54624 10.6081C2.2183 10.6558 1.95102 10.8811 1.8486 11.1964C1.74622 11.5116 1.82999 11.851 2.06727 12.0822L2.91828 12.9118ZM2.51661 11.4134C2.52599 11.3846 2.55739 11.3163 2.64725 11.3033L3.87707 11.1245C4.07221 11.0963 4.24082 10.9737 4.32814 10.7969L4.87818 9.68241C4.91835 9.60099 4.99302 9.59218 5.02325 9.59218C5.05349 9.59218 5.12816 9.60094 5.16838 9.68241L5.71841 10.7968C5.80569 10.9737 5.9743 11.0962 6.16939 11.1245L7.3993 11.3033C7.48916 11.3163 7.52057 11.3846 7.52994 11.4134C7.53932 11.4422 7.55403 11.5159 7.48897 11.5793L6.5991 12.4467C6.45782 12.5843 6.39341 12.7826 6.42678 12.9769L6.63688 14.2019C6.65221 14.2913 6.59694 14.3424 6.57247 14.3602C6.54796 14.3779 6.48233 14.4148 6.40208 14.3724L5.30202 13.7941C5.21474 13.7482 5.11897 13.7253 5.02325 13.7253C4.92753 13.7253 4.83177 13.7483 4.74449 13.7941L3.64443 14.3724C3.56403 14.4147 3.4985 14.3779 3.47403 14.3602C3.44957 14.3423 3.3943 14.2913 3.40963 14.2019L3.61972 12.977C3.6531 12.7826 3.58864 12.5843 3.4475 12.4468L2.55753 11.5793C2.49252 11.5159 2.50724 11.4422 2.51661 11.4134Z" fill="#04353A"/>
<path d="M9.89492 8.63882L9.69401 9.81023C9.638 10.1368 9.76972 10.4607 10.0378 10.6554C10.1893 10.7655 10.3665 10.8214 10.545 10.8214C10.6823 10.8214 10.8204 10.7883 10.948 10.7212L11.9999 10.1682L13.0518 10.7212C13.3451 10.8755 13.6938 10.8502 13.962 10.6554C14.2301 10.4607 14.3618 10.1368 14.3058 9.81023L14.1048 8.63882L14.9559 7.80928C15.1932 7.57799 15.277 7.23853 15.1746 6.92338C15.0722 6.6082 14.8049 6.38287 14.4769 6.3352L13.3008 6.16429L12.7749 5.09854C12.6282 4.8014 12.3312 4.61681 11.9999 4.61681C11.6685 4.61681 11.3716 4.8014 11.2249 5.09854L10.699 6.16429L9.52283 6.3352C9.19494 6.38287 8.92761 6.6082 8.82519 6.92338C8.72277 7.23848 8.80653 7.57799 9.04386 7.80932L9.89492 8.63882ZM9.4932 7.14042C9.50258 7.11163 9.53398 7.04338 9.62384 7.03031L10.8538 6.85157C11.0489 6.82317 11.2174 6.70073 11.3047 6.52392L11.8548 5.40942C11.8949 5.32799 11.9696 5.31923 11.9998 5.31923C12.0301 5.31923 12.1047 5.32799 12.1449 5.40942L12.695 6.52406C12.7823 6.70077 12.9508 6.82317 13.146 6.85157L14.3759 7.03031C14.4657 7.04338 14.4971 7.11173 14.5065 7.14046C14.5158 7.16924 14.5306 7.24293 14.4656 7.30631L13.5756 8.17382C13.4344 8.31145 13.3701 8.50959 13.4034 8.70398L13.6135 9.92892C13.6288 10.0184 13.5735 10.0694 13.5491 10.0872C13.5246 10.1049 13.459 10.1418 13.3786 10.0994L12.2786 9.52115C12.1914 9.47526 12.0956 9.45229 11.9998 9.45229C11.9041 9.45229 11.8084 9.47526 11.7211 9.5211L10.621 10.0994C10.5406 10.1418 10.475 10.1049 10.4506 10.0872C10.4262 10.0694 10.3709 10.0184 10.3863 9.92892L10.5964 8.70398C10.6297 8.50968 10.5653 8.31149 10.4241 8.17377L9.53412 7.30635C9.46915 7.24293 9.48387 7.16924 9.4932 7.14042Z" fill="#04353A"/>
<path d="M16.8724 4.07338L16.6715 5.24474C16.6155 5.57131 16.7472 5.89522 17.0153 6.08999C17.2834 6.28475 17.6321 6.30992 17.9255 6.1558L18.9774 5.60277L20.0293 6.1558C20.1569 6.22283 20.295 6.25597 20.4324 6.25597C20.6108 6.25597 20.788 6.20005 20.9395 6.08999C21.2076 5.89522 21.3393 5.57131 21.2833 5.24474L21.0824 4.07338L21.9334 3.24383C22.1707 3.01255 22.2545 2.67308 22.1521 2.35799C22.0497 2.0428 21.7824 1.81742 21.4545 1.76975L20.2784 1.5988L19.7524 0.533095C19.6057 0.235955 19.3088 0.0513611 18.9774 0.0513611C18.646 0.0513611 18.3491 0.235955 18.2024 0.533095L17.6764 1.5988L16.5004 1.76975C16.1724 1.81738 15.9051 2.04275 15.8027 2.35794C15.7003 2.67303 15.7841 3.01255 16.0214 3.24383L16.8724 4.07338ZM16.4708 2.57502C16.4801 2.54624 16.5115 2.47794 16.6014 2.46486L17.8312 2.28613C18.0264 2.25781 18.1951 2.13533 18.2823 1.95847L18.8323 0.844017C18.8725 0.762595 18.9472 0.75383 18.9774 0.75383C19.0076 0.75383 19.0824 0.762595 19.1225 0.844017L19.6726 1.95852C19.7598 2.13533 19.9285 2.25786 20.1235 2.28613L21.3534 2.46486C21.4433 2.47794 21.4748 2.54628 21.4841 2.57502C21.4934 2.6038 21.5081 2.67749 21.4431 2.74086L20.5531 3.60842C20.412 3.74605 20.3476 3.94419 20.3809 4.13858L20.591 5.36347C20.6063 5.453 20.551 5.504 20.5266 5.52177C20.5022 5.53958 20.4365 5.57638 20.3561 5.53405L19.2561 4.95575C19.1688 4.90986 19.0731 4.88689 18.9774 4.88689C18.8816 4.88689 18.7859 4.90986 18.6986 4.9557L17.5986 5.53405C17.5182 5.57638 17.4526 5.53949 17.4281 5.52177C17.4037 5.50395 17.3484 5.453 17.3637 5.36347L17.5738 4.13867C17.6072 3.94433 17.5428 3.74614 17.4016 3.60838L16.5116 2.74086C16.4466 2.67749 16.4614 2.60375 16.4708 2.57502Z" fill="#04353A"/>
</g>
<defs>
<clipPath id="clip0">
<rect width="24" height="24" fill="white"/>
</clipPath>
</defs>
</svg>
