<svg width="16" height="16" viewBox="0 0 16 16" fill="none" xmlns="http://www.w3.org/2000/svg">
<g clip-path="url(#clip0)">
<path d="M15.8627 0.138295C15.7301 0.00566965 15.5312 -0.0351116 15.3572 0.0345134L0.294672 6.05945C0.122328 6.12838 0.00692244 6.29251 0.000297448 6.47804C-0.00629629 6.66354 0.0972035 6.83545 0.264203 6.91645L6.20382 9.7971L9.0845 15.7367C9.16306 15.8987 9.32712 16.0009 9.50615 16.0009C9.51172 16.0009 9.51731 16.0008 9.5229 16.0006C9.70837 15.994 9.87256 15.8786 9.94147 15.7063L15.9665 0.643857C16.0361 0.469732 15.9953 0.270888 15.8627 0.138295ZM1.62792 6.53588L13.585 1.75311L6.45907 8.87895L1.62792 6.53588ZM9.46506 14.373L7.12197 9.54182L14.2479 2.41598L9.46506 14.373Z" fill="white"/>
</g>
<defs>
<clipPath id="clip0">
<rect width="16" height="16" fill="white"/>
</clipPath>
</defs>
</svg>
