<svg width="24" height="24" viewBox="0 0 24 24" fill="none" xmlns="http://www.w3.org/2000/svg">
<g clip-path="url(#clip0)">
<path d="M11.9602 21.9668H2.99002C2.43984 21.9668 1.99336 21.5202 1.99336 20.9701V3.02989C1.99336 2.47972 2.43989 2.03323 2.99002 2.03323H11.9602C12.5113 2.03323 12.9568 1.58773 12.9568 1.03658C12.9568 0.485419 12.5113 0.0398254 11.9602 0.0398254H2.99002C1.34152 0.0398254 0 1.38139 0 3.02989V20.9701C0 22.6186 1.34152 23.9601 2.99002 23.9601H11.9602C12.5113 23.9601 12.9568 23.5146 12.9568 22.9634C12.9568 22.4123 12.5113 21.9668 11.9602 21.9668Z" fill="#04353A"/>
<path d="M23.7032 11.2904L17.6434 5.31028C17.2527 4.92356 16.6208 4.92858 16.2341 5.32027C15.8474 5.71196 15.8514 6.34285 16.2441 6.72956L20.5746 11.0033H8.97029C8.41913 11.0033 7.97363 11.4488 7.97363 12C7.97363 12.5511 8.41913 12.9967 8.97029 12.9967H20.5746L16.2441 17.2704C15.8514 17.6571 15.8484 18.288 16.2341 18.6797C16.4294 18.877 16.6866 18.9767 16.9437 18.9767C17.1969 18.9767 17.45 18.881 17.6434 18.6896L23.7032 12.7095C23.8926 12.5222 24.0002 12.267 24.0002 11.9999C24.0002 11.7329 23.8936 11.4788 23.7032 11.2904Z" fill="#04353A"/>
</g>
<defs>
<clipPath id="clip0">
<rect width="24" height="24" fill="white"/>
</clipPath>
</defs>
</svg>
