<svg width="25" height="24" viewBox="0 0 25 24" fill="none" xmlns="http://www.w3.org/2000/svg">
<g clip-path="url(#clip0)">
<path d="M10.4717 18.1233L12.3053 21.7445L14.1359 18.1292C12.9412 18.4901 11.6606 18.4867 10.4717 18.1233Z" fill="#04353A"/>
<path d="M11.678 23.6209L8.30417 16.9578C6.96875 15.8584 6.08867 14.2225 5.99403 12.3818L0.600308 17.1148C0.263933 17.4099 0.284465 17.941 0.641418 18.2095L4.0107 20.7437L1.97234 22.7878C1.53115 23.2303 1.84353 23.9915 2.46954 23.9915H12.1593C11.9538 23.9479 11.7755 23.8133 11.678 23.6209Z" fill="#04353A"/>
<path d="M24.0259 17.1148L18.6321 12.3818C18.5368 14.2353 17.645 15.881 16.2939 16.9806L12.9315 23.621C12.834 23.8134 12.6557 23.9479 12.4502 23.9916H22.1566C22.7806 23.9916 23.0965 23.2318 22.6538 22.7878L20.6154 20.7437L23.9847 18.2095C24.3423 17.9406 24.3617 17.4095 24.0259 17.1148Z" fill="#04353A"/>
<path d="M17.2354 12.0044C17.2354 14.7155 15.0274 16.921 12.3135 16.921C9.59955 16.921 7.3916 14.7154 7.3916 12.0044V9.06152H17.2354V12.0044Z" fill="#04353A"/>
<path d="M17.2354 12.0044C17.2354 14.7155 15.0274 16.921 12.3135 16.921C9.59955 16.921 7.3916 14.7154 7.3916 12.0044V9.06152H17.2354V12.0044Z" fill="#04353A"/>
<path d="M20.7514 6.1046H18.4438L16.736 0.560019C16.6084 0.145818 16.1388 -0.055324 15.7504 0.137873L12.3013 1.85426L8.87931 0.138855C8.49062 -0.0559783 8.01962 0.145257 7.89193 0.560066L6.18409 6.10465H3.87643C3.39718 6.10465 3.05771 6.58152 3.2094 7.04306C3.49454 7.90918 4.44512 9.25885 5.98581 10.2242V8.35081C5.98581 7.96367 6.30062 7.64981 6.68893 7.64981H17.9389C18.3272 7.64981 18.6421 7.96367 18.6421 8.35081V10.2242C20.1703 9.26665 21.131 7.91638 21.4185 7.04306C21.57 6.58199 21.2312 6.1046 20.7514 6.1046Z" fill="#04353A"/>
</g>
<defs>
<clipPath id="clip0">
<rect width="24" height="23.9277" fill="white" transform="translate(0.313477 0.0639648)"/>
</clipPath>
</defs>
</svg>
