<svg width="49" height="48" viewBox="0 0 49 48" fill="none" xmlns="http://www.w3.org/2000/svg">
<g clip-path="url(#clip0)">
<path d="M21.0693 36.2278L24.7366 43.4921L28.3978 36.2396C26.0085 36.9635 23.4472 36.9568 21.0693 36.2278Z" fill="#04353A"/>
<path d="M23.483 47.2566L16.7353 33.8901C14.0644 31.6846 12.3043 28.403 12.115 24.7104L1.32757 34.205C0.65482 34.797 0.695883 35.8625 1.40979 36.4011L8.14835 41.4847L4.07163 45.5853C3.18926 46.4729 3.81401 48 5.06604 48H24.4456C24.0346 47.9125 23.6779 47.6425 23.483 47.2566Z" fill="#04353A"/>
<path d="M48.1797 34.205L37.3921 24.7104C37.2015 28.4287 35.4179 31.73 32.7156 33.9357L25.9909 47.2567C25.7959 47.6426 25.4393 47.9125 25.0283 48.0001H44.4411C45.689 48.0001 46.3208 46.4759 45.4355 45.5854L41.3587 41.4848L48.0974 36.4011C48.8124 35.8616 48.8514 34.7963 48.1797 34.205Z" fill="#04353A"/>
<path d="M34.5977 23.9532C34.5977 29.3916 30.1817 33.8161 24.7539 33.8161C19.3261 33.8161 14.9102 29.3915 14.9102 23.9532V18.0496H34.5977V23.9532Z" fill="#04353A"/>
<path d="M34.5977 23.9532C34.5977 29.3916 30.1817 33.8161 24.7539 33.8161C19.3261 33.8161 14.9102 29.3915 14.9102 23.9532V18.0496H34.5977V23.9532Z" fill="#04353A"/>
<path d="M41.6288 12.1178H37.0136L33.5979 0.995107C33.3427 0.164201 32.4036 -0.239299 31.6268 0.148264L24.7285 3.59142L17.8846 0.150232C17.1072 -0.240611 16.1652 0.163076 15.9098 0.995201L12.4942 12.1179H7.87884C6.92034 12.1179 6.2414 13.0745 6.54478 14.0004C7.11506 15.7379 9.01622 18.4454 12.0976 20.382V16.6238C12.0976 15.8472 12.7272 15.2175 13.5038 15.2175H36.0038C36.7805 15.2175 37.4101 15.8472 37.4101 16.6238V20.382C40.4665 18.461 42.3879 15.7523 42.9629 14.0004C43.266 13.0755 42.5885 12.1178 41.6288 12.1178Z" fill="#04353A"/>
</g>
<defs>
<clipPath id="clip0">
<rect width="48" height="48" fill="white" transform="translate(0.753906)"/>
</clipPath>
</defs>
</svg>
