<svg width="24" height="24" viewBox="0 0 24 24" fill="none" xmlns="http://www.w3.org/2000/svg">
<path d="M23.9655 9.66636C23.8829 9.39949 23.6629 9.205 23.398 9.1647L15.9579 8.03131L12.6305 0.963792C12.5121 0.7122 12.2676 0.55294 12 0.55294C11.7324 0.55294 11.488 0.7122 11.3695 0.963792L8.04198 8.03131L0.602007 9.1647C0.337211 9.205 0.117134 9.39949 0.0344468 9.66632C-0.0482872 9.93319 0.0207125 10.2261 0.212384 10.4219L5.59586 15.9232L4.32518 23.6913C4.2799 23.9678 4.38837 24.2472 4.60488 24.4122C4.72737 24.5055 4.87244 24.5529 5.01822 24.5529C5.13016 24.5529 5.24247 24.525 5.34532 24.4683L12 20.8006L18.6544 24.4682C18.8913 24.5988 19.1784 24.5771 19.3949 24.4122C19.6114 24.2472 19.7199 23.9677 19.6747 23.6912L18.4036 15.9232L23.7876 10.4219C23.9793 10.2261 24.0483 9.93319 23.9655 9.66636Z" fill="white"/>
</svg>
