<svg width="32" height="32" viewBox="0 0 32 32" fill="none" xmlns="http://www.w3.org/2000/svg">
<path d="M23.99 10.7401C23.4974 10.2207 22.6762 10.1978 22.156 10.6916L13.8741 18.5459L9.92383 14.4901C9.42351 13.9768 8.6032 13.9656 8.08945 14.466C7.57614 14.9658 7.56532 15.787 8.0652 16.3003L12.9085 21.2729C13.1623 21.5336 13.4996 21.6651 13.8378 21.6651C14.1586 21.6651 14.4795 21.5466 14.7308 21.3092L23.9416 12.5741C24.4613 12.0811 24.4833 11.2599 23.99 10.7401Z" fill="#00B848"/>
<path d="M16 0C7.1775 0 0 7.1775 0 16C0 24.8225 7.1775 32 16 32C24.8225 32 32 24.8225 32 16C32 7.1775 24.8225 0 16 0ZM16 29.4054C8.60844 29.4054 2.59456 23.3921 2.59456 16C2.59456 8.60844 8.60838 2.59456 16 2.59456C23.392 2.59456 29.4054 8.60838 29.4054 16C29.4054 23.392 23.392 29.4054 16 29.4054Z" fill="#00B848"/>
</svg>
