<svg width="25" height="24" viewBox="0 0 25 24" fill="none" xmlns="http://www.w3.org/2000/svg">
<g clip-path="url(#clip0)">
<path d="M12.8236 11.5609C14.4119 11.5609 15.7872 10.9913 16.9109 9.86737C18.0346 8.74365 18.6042 7.36871 18.6042 5.78027C18.6042 4.19238 18.0346 2.81726 16.9107 1.69318C15.7868 0.569641 14.4117 0 12.8236 0C11.2352 0 9.86023 0.569641 8.73651 1.69336C7.61279 2.81708 7.04297 4.1922 7.04297 5.78027C7.04297 7.36871 7.61279 8.74384 8.73669 9.86755C9.8606 10.9911 11.2357 11.5609 12.8236 11.5609V11.5609Z" fill="#04353A"/>
<path d="M22.9387 18.4548C22.9062 17.9872 22.8407 17.4771 22.7442 16.9384C22.6468 16.3956 22.5214 15.8826 22.3712 15.4136C22.2161 14.929 22.0052 14.4503 21.7444 13.9916C21.4738 13.5156 21.1559 13.101 20.7993 12.7599C20.4263 12.403 19.9696 12.1161 19.4415 11.9068C18.9153 11.6986 18.3321 11.5931 17.7082 11.5931C17.4633 11.5931 17.2263 11.6937 16.7687 11.9916C16.4871 12.1752 16.1577 12.3876 15.79 12.6226C15.4756 12.8229 15.0497 13.0106 14.5237 13.1805C14.0104 13.3466 13.4893 13.4308 12.975 13.4308C12.4606 13.4308 11.9397 13.3466 11.4259 13.1805C10.9004 13.0107 10.4745 12.8231 10.1605 12.6227C9.79626 12.39 9.46667 12.1776 9.18085 11.9914C8.72382 11.6935 8.48669 11.593 8.2417 11.593C7.61768 11.593 7.03467 11.6986 6.50861 11.907C5.9809 12.1159 5.52405 12.4028 5.1507 12.7601C4.79419 13.1014 4.47614 13.5157 4.20587 13.9916C3.94531 14.4503 3.73437 14.9288 3.5791 15.4138C3.42914 15.8828 3.30371 16.3956 3.2063 16.9384C3.1098 17.4763 3.04425 17.9866 3.01184 18.4554C2.97998 18.9146 2.96387 19.3912 2.96387 19.8726C2.96387 21.1254 3.36212 22.1397 4.14746 22.8876C4.9231 23.6257 5.9494 24.0002 7.19745 24.0002H18.7536C20.0016 24.0002 21.0276 23.6259 21.8034 22.8876C22.5889 22.1402 22.9872 21.1258 22.9872 19.8724C22.987 19.3889 22.9707 18.9119 22.9387 18.4548V18.4548Z" fill="#04353A"/>
</g>
<defs>
<clipPath id="clip0">
<rect width="24" height="24.0001" fill="white" transform="translate(0.995117)"/>
</clipPath>
</defs>
</svg>
